<svg xmlns="http://www.w3.org/2000/svg" width="60" height="60" fill="none" viewBox="0 0 60 60"><line x2="10.134" y1="-1.5" y2="-1.5" stroke="#fff" stroke-width="3" transform="matrix(-0.56386 0.825871 -0.790529 -0.612425 22.7143 12)"/><line x1="18.5" x2="18.5" y1="20.37" y2="47" stroke="#fff" stroke-width="3"/><line x1="17" x2="42" y1="45.5" y2="45.5" stroke="#fff" stroke-width="3"/><line x1="22.714" x2="42" y1="12.783" y2="12.783" stroke="#fff" stroke-width="3"/><line x1="40.5" x2="40.5" y1="47" y2="15.804" stroke="#fff" stroke-width="3"/><line x1="24.071" x2="24.071" y1="37.873" y2="23.413" stroke="#fff" stroke-width="3"/><path stroke="#fff" stroke-width="2" d="M33.1428 27.3431C33.1428 28.9616 31.8313 30.2731 30.2143 30.2731C28.5972 30.2731 27.2857 28.9616 27.2857 27.3431C27.2857 25.7245 28.5972 24.4131 30.2143 24.4131C31.8313 24.4131 33.1428 25.7245 33.1428 27.3431Z"/><path stroke="#fff" stroke-width="2" d="M36.7143 32.6691C36.7143 34.2877 35.4028 35.5991 33.7857 35.5991C32.1687 35.5991 30.8571 34.2877 30.8571 32.6691C30.8571 31.0506 32.1687 29.7391 33.7857 29.7391C35.4028 29.7391 36.7143 31.0506 36.7143 32.6691Z"/></svg>