<svg xmlns="http://www.w3.org/2000/svg" width="60" height="60" fill="none" viewBox="0 0 60 60"><rect width="60" height="60" fill="#fff" rx="25"/><rect width="51" height="19" x="4" y="20" fill="#7606CE"/><rect width="45" height="13" x="7" y="23" fill="#fff"/><rect width="5" height="13" x="47" y="20" fill="#fff"/><rect width="3" height="19" x="52" y="20" fill="#0692CE"/><g filter="url(#filter0_d)"><path fill="#0692CE" d="M14.5195 29.9941V33H12.7617V24.4688H16.0898C16.7305 24.4688 17.293 24.5859 17.7773 24.8203C18.2656 25.0547 18.6406 25.3887 18.9023 25.8223C19.1641 26.252 19.2949 26.7422 19.2949 27.293C19.2949 28.1289 19.0078 28.7891 18.4336 29.2734C17.8633 29.7539 17.0723 29.9941 16.0605 29.9941H14.5195ZM14.5195 28.5703H16.0898C16.5547 28.5703 16.9082 28.4609 17.1504 28.2422C17.3965 28.0234 17.5195 27.7109 17.5195 27.3047C17.5195 26.8867 17.3965 26.5488 17.1504 26.291C16.9043 26.0332 16.5645 25.9004 16.1309 25.8926H14.5195V28.5703ZM27.2051 30.1582C27.1387 31.0762 26.7988 31.7988 26.1855 32.3262C25.5762 32.8535 24.7715 33.1172 23.7715 33.1172C22.6777 33.1172 21.8164 32.75 21.1875 32.0156C20.5625 31.2773 20.25 30.2656 20.25 28.9805V28.459C20.25 27.6387 20.3945 26.916 20.6836 26.291C20.9727 25.666 21.3848 25.1875 21.9199 24.8555C22.459 24.5195 23.084 24.3516 23.7949 24.3516C24.7793 24.3516 25.5723 24.6152 26.1738 25.1426C26.7754 25.6699 27.123 26.4102 27.2168 27.3633H25.459C25.416 26.8125 25.2617 26.4141 24.9961 26.168C24.7344 25.918 24.334 25.793 23.7949 25.793C23.209 25.793 22.7695 26.0039 22.4766 26.4258C22.1875 26.8438 22.0391 27.4941 22.0312 28.377V29.0215C22.0312 29.9434 22.1699 30.6172 22.4473 31.043C22.7285 31.4688 23.1699 31.6816 23.7715 31.6816C24.3145 31.6816 24.7188 31.5586 24.9844 31.3125C25.2539 31.0625 25.4082 30.6777 25.4473 30.1582H27.2051ZM27.9844 29.7715C27.9844 29.1426 28.1055 28.582 28.3477 28.0898C28.5898 27.5977 28.9375 27.2168 29.3906 26.9473C29.8477 26.6777 30.377 26.543 30.9785 26.543C31.834 26.543 32.5312 26.8047 33.0703 27.3281C33.6133 27.8516 33.916 28.5625 33.9785 29.4609L33.9902 29.8945C33.9902 30.8672 33.7188 31.6484 33.1758 32.2383C32.6328 32.8242 31.9043 33.1172 30.9902 33.1172C30.0762 33.1172 29.3457 32.8242 28.7988 32.2383C28.2559 31.6523 27.9844 30.8555 27.9844 29.8477V29.7715ZM29.6777 29.8945C29.6777 30.4961 29.791 30.957 30.0176 31.2773C30.2441 31.5938 30.5684 31.752 30.9902 31.752C31.4004 31.752 31.7207 31.5957 31.9512 31.2832C32.1816 30.9668 32.2969 30.4629 32.2969 29.7715C32.2969 29.1816 32.1816 28.7246 31.9512 28.4004C31.7207 28.0762 31.3965 27.9141 30.9785 27.9141C30.5645 27.9141 30.2441 28.0762 30.0176 28.4004C29.791 28.7207 29.6777 29.2188 29.6777 29.8945ZM38.5957 28.248C38.3652 28.2168 38.1621 28.2012 37.9863 28.2012C37.3457 28.2012 36.9258 28.418 36.7266 28.8516V33H35.0332V26.6602H36.6328L36.6797 27.416C37.0195 26.834 37.4902 26.543 38.0918 26.543C38.2793 26.543 38.4551 26.5684 38.6191 26.6191L38.5957 28.248ZM42.2168 33.1172C41.2871 33.1172 40.5293 32.832 39.9434 32.2617C39.3613 31.6914 39.0703 30.9316 39.0703 29.9824V29.8184C39.0703 29.1816 39.1934 28.6133 39.4395 28.1133C39.6855 27.6094 40.0332 27.2227 40.4824 26.9531C40.9355 26.6797 41.4512 26.543 42.0293 26.543C42.8965 26.543 43.5781 26.8164 44.0742 27.3633C44.5742 27.9102 44.8242 28.6855 44.8242 29.6895V30.3809H40.7871C40.8418 30.7949 41.0059 31.127 41.2793 31.377C41.5566 31.627 41.9062 31.752 42.3281 31.752C42.9805 31.752 43.4902 31.5156 43.8574 31.043L44.6895 31.9746C44.4355 32.334 44.0918 32.6152 43.6582 32.8184C43.2246 33.0176 42.7441 33.1172 42.2168 33.1172ZM42.0234 27.9141C41.6875 27.9141 41.4141 28.0273 41.2031 28.2539C40.9961 28.4805 40.8633 28.8047 40.8047 29.2266H43.1602V29.0918C43.1523 28.7168 43.0508 28.4277 42.8555 28.2246C42.6602 28.0176 42.3828 27.9141 42.0234 27.9141Z"/></g><defs><filter id="filter0_d" width="40.063" height="16.766" x="8.762" y="24.352" color-interpolation-filters="sRGB" filterUnits="userSpaceOnUse"><feFlood flood-opacity="0" result="BackgroundImageFix"/><feColorMatrix in="SourceAlpha" type="matrix" values="0 0 0 0 0 0 0 0 0 0 0 0 0 0 0 0 0 0 127 0"/><feOffset dy="4"/><feGaussianBlur stdDeviation="2"/><feColorMatrix type="matrix" values="0 0 0 0 0 0 0 0 0 0 0 0 0 0 0 0 0 0 0.25 0"/><feBlend in2="BackgroundImageFix" mode="normal" result="effect1_dropShadow"/><feBlend in="SourceGraphic" in2="effect1_dropShadow" mode="normal" result="shape"/></filter></defs></svg>