<svg width="60" height="60" viewBox="0 0 60 60" fill="none" xmlns="http://www.w3.org/2000/svg">
<line y1="-1.5" x2="10.1342" y2="-1.5" transform="matrix(-0.56386 0.825871 -0.790529 -0.612425 22.7143 12)" stroke="white" stroke-width="3"/>
<line x1="18.5" y1="20.3696" x2="18.5" y2="47" stroke="white" stroke-width="3"/>
<line x1="17" y1="45.5" x2="42" y2="45.5" stroke="white" stroke-width="3"/>
<line x1="22.7143" y1="12.7826" x2="42" y2="12.7826" stroke="white" stroke-width="3"/>
<line x1="40.5" y1="47" x2="40.5" y2="15.8043" stroke="white" stroke-width="3"/>
<line x1="24.0714" y1="37.8735" x2="24.0714" y2="23.413" stroke="white" stroke-width="3"/>
<path d="M33.1428 27.3431C33.1428 28.9616 31.8313 30.2731 30.2143 30.2731C28.5972 30.2731 27.2857 28.9616 27.2857 27.3431C27.2857 25.7245 28.5972 24.4131 30.2143 24.4131C31.8313 24.4131 33.1428 25.7245 33.1428 27.3431Z" stroke="white" stroke-width="2"/>
<path d="M36.7143 32.6691C36.7143 34.2877 35.4028 35.5991 33.7857 35.5991C32.1687 35.5991 30.8571 34.2877 30.8571 32.6691C30.8571 31.0506 32.1687 29.7391 33.7857 29.7391C35.4028 29.7391 36.7143 31.0506 36.7143 32.6691Z" stroke="white" stroke-width="2"/>
</svg>
